<?xml version="1.0" encoding="UTF-8"?>
<svg id="Layer_1" data-name="Layer 1" xmlns="http://www.w3.org/2000/svg" viewBox="0 0 307 434">
  <defs>
    <style>
      .cls-1 {
        fill: #a0051f;
      }

      .cls-2 {
        fill: #dc2e44;
      }
    </style>
  </defs>
  <g>
    <path class="cls-2" d="M98,0c2.23,2.12,5.72,1.5,9.02,1.89l32.98,3.94c14.52,1.73,28.48,1.71,43-.02l32.98-3.92c3.3-.39,6.79.22,9.02-1.89h33c.94,1.34,3.19,1.55,4.84,1.88,10.68,2.16,17.31,9.13,20.51,18.98,4.84,14.86,19.71,32.58,23.65,49.14v5.82c-3.82,11.97-17.84,17.08-30.09,19.27-34.45,6.18-68.72,10.22-103.8,11.85-5.8.27-11.01.54-16.13.33-33.9-1.37-67.55-5.11-101.47-10.66-8.33-1.36-16.05-2.76-23.44-5.48-5.41-1.99-11.18-5.86-13.89-11.21-5.79-11.39,5.45-28.52,11.81-38.89C46.28,14.44,38.16,7,67,0h31ZM251.56,13.24c1.3-.96,1.81-3.04,1.23-3.59-.43-.42-1.95-1.09-2.93-.95l-42.01,6.11c-31.4,4.56-62.22,4.45-93.59-.11l-41.13-5.98c-1.36-.2-3.23.72-3.19,1.74.22,5.45,18.72,11.12,24.14,12.55,21.95,5.77,44.06,7.19,66.92,7.21,24.33.02,70.62-2.25,90.56-16.96Z"/>
    <path class="cls-1" d="M251.56,13.24c-19.94,14.71-66.24,16.98-90.56,16.96-22.86-.02-44.96-1.44-66.92-7.21-5.42-1.42-23.91-7.1-24.14-12.55-.04-1.02,1.83-1.93,3.19-1.74l41.13,5.98c31.37,4.56,62.19,4.67,93.59.11l42.01-6.11c.97-.14,2.49.54,2.93.95.58.55.07,2.64-1.23,3.59Z"/>
  </g>
  <g>
    <path class="cls-2" d="M123.4,358.84c.62,8.15,1.47,16.47,1.41,25.12l-.29,40.4c-.03,3.63-.91,6.94-4.17,7.71-3.47.82-7.47-1.33-7.74-5.51-.86-13.47.07-26.7.09-40.86-3.66-1.1-7.53-.73-12.05-1-2.61,14.28-3.18,28.57-2.87,43.31.07,3.32-3.01,4.19-4.79,5.98h-1c-.73-1.55-5.81-.92-6.11-6.08-.87-15.19.33-29.77,2.49-44.77l-10.69-2.54c-4.43,15.55-1.76,28.96-2.71,43.43-.23,3.43-3.59,5.21-6.39,4.98s-5.49-2.61-5.51-6.05l-.18-23.98c-.06-8.12,1.69-15.64,3.22-23.45-3.68-1.51-7.04-1.95-10.55-2.03-2.96,15.75-3.68,31.36-2.79,47.42.19,3.44-2.85,5.88-5.34,6-3.26.16-6.51-2.18-6.75-5.93-1.01-16.08-.23-31.82,2.51-47.85-2.73-1.12-5.21-1.37-7.82-1.05-3.02,14.68-3.73,29.01-3.06,43.94.15,3.47-1.76,6.18-4.98,6.71-2.49.42-6.61-1.8-6.89-5.42-1.29-16.39-.17-32.72,3.32-48.55-2.51-.93-4.28-1.67-7.38-2.16-3.29,14.1-3.63,28.54-3.09,43.37.16,4.28-1.3,8.05-5.64,8.05-9.42-.01-5.11-12-7.66-12.05v-10c2.18-7,1.21-22.63,4.79-31.12.31-.74,1.81-1.55,1.6-2.19s-1.32-1.05-2.13-2.05c.3-50.2,1.74-99.65,5.27-149.78,1.78-25.35,4.09-49.5,7.89-74.43,1.51-9.91,3.82-18.93,6.93-27.83,30.55,10.15,63.19,12.57,96.38,13.88-2.7,31.16-3.67,61.21-3.4,92.59.41,48.48,2.43,96.06,6.07,143.78Z"/>
    <path class="cls-1" d="M156.98,107.28c-2.33,28.72-3.06,57.19-2.82,86.81.45,55.39,3.11,109.7,7.2,164.75-1.8,2.59-.48,4.65-.45,7.12.16,13.93.84,27.3,1.7,41.08.22,3.46-2.29,6.32-5.29,6.51-2.81.18-6.25-1.93-6.59-5.47-.89-9.17-3.16-38.36-.65-46.98l-9.15-.15,1.84,44.98c.17,4.04-2.99,6.64-6.25,6.39-3.72-.28-5.9-2.86-6.08-6.93l-1.46-33.37c-.18-4.16-.42-8,1.11-12.06-2.46-1.1-4.55-.92-6.69-1.12-3.65-47.72-5.66-95.3-6.07-143.78-.27-31.38.69-61.43,3.4-92.59-33.19-1.3-65.83-3.73-96.38-13.88,2.1-6.02,4.37-11.91,7.72-17.46,7.39,2.72,15.11,4.12,23.44,5.48,33.93,5.55,67.58,9.28,101.47,10.66Z"/>
  </g>
</svg>